<svg aria-hidden="true" style="position: absolute; width: 0; height: 0; overflow: hidden;" version="1.1"
    xmlns="http://www.w3.org/2000/svg" xmlns:xlink="http://www.w3.org/1999/xlink">
    <defs>
        <symbol id="menu-icon" viewBox="0 0 24 16">
            <path fill-rule="evenodd" clip-rule="evenodd"
                d="M0 2.667V0h24v2.667H0zm0 6.666h24V6.667H0v2.666zM0 16h24v-2.667H0V16z" />
        </symbol>
        <!-- modal icons -->
        <symbol id="icon-check" viewBox="0 0 34 32">
            <path fill="var(--color1, #2196f3)"
                d="M4.267 0h25.6a4.267 4.267 0 014.267 4.267v23.467a4.267 4.267 0 01-4.267 4.267h-25.6A4.267 4.267 0 010 27.734V4.267A4.267 4.267 0 014.267 0z" />
            <path fill="var(--color2, #fff)" stroke="var(--color2, #fff)" stroke-width=".427"
                d="M8.442 16.537l-.147-.14-2.205 2.088 7.767 7.41 16.318-15.567-2.19-2.089-14.128 13.465-5.416-5.167z" />
        </symbol>
        <symbol id="icon-email" viewBox="0 0 32 32">
            <path
                d="M26.667 5.333H5.334A2.663 2.663 0 002.681 8l-.013 16c0 1.467 1.2 2.667 2.667 2.667h21.333c1.467 0 2.667-1.2 2.667-2.667V8c0-1.467-1.2-2.667-2.667-2.667zM26.133 11l-9.427 5.893a1.346 1.346 0 01-1.413 0L5.866 11a1.132 1.132 0 111.2-1.92l8.933 5.587 8.933-5.587a1.132 1.132 0 111.2 1.92z" />
        </symbol>
        <symbol id="icon-person" viewBox="0 0 32 32">
            <path
                d="M16 16c2.947 0 5.333-2.387 5.333-5.333S18.946 5.334 16 5.334c-2.947 0-5.333 2.387-5.333 5.333S13.054 16 16 16zm0 2.667c-3.56 0-10.667 1.787-10.667 5.333v1.333c0 .733.6 1.333 1.333 1.333h18.667c.733 0 1.333-.6 1.333-1.333V24c0-3.547-7.107-5.333-10.667-5.333z" />
        </symbol>
        <symbol id="icon-phone" viewBox="0 0 32 32">
            <path
                d="M24.882 19.773l-3.268-.373a2.561 2.561 0 00-2.11.733L17.137 22.5a19.357 19.357 0 01-8.478-8.478l2.38-2.38a2.561 2.561 0 00.733-2.11l-.373-3.242a2.575 2.575 0 00-2.56-2.277H6.613c-1.454 0-2.663 1.209-2.573 2.663.682 10.987 9.469 19.761 20.443 20.443 1.454.09 2.663-1.119 2.663-2.573V22.32a2.549 2.549 0 00-2.264-2.547z" />
        </symbol>
        <symbol id="close-icon">
            <path
                d="M15 4.108L13.892 3 9.5 7.392 5.108 3 4 4.108 8.392 8.5 4 12.892 5.108 14 9.5 9.608 13.892 14 15 12.892 10.608 8.5 15 4.108z" />
        </symbol>
        <!-- social for main -->
        <symbol id="main-fb-icon" viewBox="0 0 32 32">
            <path
                d="M21.329 5.313h2.921v-5.088c-0.504-0.069-2.237-0.225-4.256-0.225-4.212 0-7.097 2.649-7.097 7.519v4.481h-4.648v5.688h4.648v14.312h5.699v-14.311h4.46l0.708-5.688h-5.169v-3.919c0.001-1.644 0.444-2.769 2.735-2.769z">
            </path>
        </symbol>
        <symbol id="main-ig-icon" viewBox="0 0 32 32">
            <path
                d="M31.969 9.408c-0.075-1.7-0.35-2.869-0.744-3.882-0.406-1.075-1.032-2.038-1.851-2.838-0.8-0.813-1.769-1.444-2.832-1.844-1.019-0.394-2.182-0.669-3.882-0.744-1.713-0.081-2.257-0.1-6.601-0.1s-4.888 0.019-6.595 0.094c-1.7 0.075-2.869 0.35-3.882 0.744-1.075 0.406-2.038 1.031-2.838 1.85-0.813 0.8-1.444 1.769-1.844 2.832-0.394 1.019-0.669 2.182-0.744 3.882-0.081 1.713-0.1 2.257-0.1 6.601s0.019 4.888 0.094 6.595c0.075 1.7 0.35 2.869 0.744 3.882 0.406 1.075 1.038 2.038 1.85 2.838 0.8 0.813 1.769 1.444 2.832 1.844 1.019 0.394 2.182 0.669 3.882 0.744 1.706 0.075 2.25 0.094 6.595 0.094s4.888-0.019 6.595-0.094c1.7-0.075 2.869-0.35 3.882-0.744 2.151-0.832 3.851-2.534 4.682-4.682 0.394-1.019 0.669-2.182 0.744-3.882 0.075-1.707 0.094-2.251 0.094-6.595s-0.006-4.888-0.081-6.595zM29.087 22.473c-0.069 1.563-0.331 2.407-0.55 2.969-0.538 1.394-1.644 2.5-3.038 3.038-0.563 0.219-1.413 0.481-2.969 0.55-1.688 0.075-2.194 0.094-6.464 0.094s-4.782-0.019-6.464-0.094c-1.563-0.069-2.407-0.331-2.969-0.55-0.694-0.256-1.325-0.663-1.838-1.194-0.531-0.519-0.938-1.144-1.194-1.838-0.219-0.563-0.481-1.413-0.55-2.969-0.075-1.688-0.094-2.194-0.094-6.464s0.019-4.782 0.094-6.464c0.069-1.563 0.331-2.407 0.55-2.969 0.256-0.694 0.663-1.325 1.2-1.838 0.519-0.531 1.144-0.938 1.838-1.194 0.563-0.219 1.413-0.481 2.969-0.55 1.688-0.075 2.194-0.094 6.464-0.094 4.276 0 4.782 0.019 6.464 0.094 1.563 0.069 2.407 0.331 2.969 0.55 0.694 0.256 1.325 0.662 1.838 1.194 0.531 0.519 0.938 1.144 1.194 1.838 0.219 0.563 0.481 1.413 0.55 2.969 0.075 1.688 0.094 2.194 0.094 6.464s-0.019 4.77-0.094 6.458z">
            </path>
            <path
                d="M16.059 7.783c-4.538 0-8.22 3.682-8.22 8.22s3.682 8.22 8.22 8.22c4.539 0 8.22-3.682 8.22-8.22s-3.682-8.22-8.22-8.22zM16.059 21.335c-2.944 0-5.332-2.388-5.332-5.332s2.388-5.332 5.332-5.332c2.944 0 5.332 2.388 5.332 5.332s-2.388 5.332-5.332 5.332z">
            </path>
            <path
                d="M26.524 7.458c0 1.060-0.859 1.919-1.919 1.919s-1.919-0.859-1.919-1.919c0-1.060 0.859-1.919 1.919-1.919s1.919 0.859 1.919 1.919z">
            </path>
        </symbol>
        <symbol id="main-in-icon" viewBox="0 0 32 32">
            <path
                d="M31.992 32v-0.001h0.008v-11.736c0-5.741-1.236-10.164-7.948-10.164-3.227 0-5.392 1.771-6.276 3.449h-0.093v-2.913h-6.364v21.364h6.627v-10.579c0-2.785 0.528-5.479 3.977-5.479 3.399 0 3.449 3.179 3.449 5.657v10.401h6.62z">
            </path>
            <path d="M0.528 10.636h6.635v21.364h-6.635v-21.364z">
            </path>
            <path
                d="M3.843 0c-2.121 0-3.843 1.721-3.843 3.843s1.721 3.879 3.843 3.879c2.121 0 3.843-1.757 3.843-3.879-0.001-2.121-1.723-3.843-3.843-3.843v0z">
            </path>
        </symbol>
        <symbol id="main-twitter-icon" viewBox="0 0 32 32">
            <path
                d="M32 6.078c-1.19 0.522-2.458 0.868-3.78 1.036 1.36-0.812 2.398-2.088 2.886-3.626-1.268 0.756-2.668 1.29-4.16 1.588-1.204-1.282-2.92-2.076-4.792-2.076-3.632 0-6.556 2.948-6.556 6.562 0 0.52 0.044 1.020 0.152 1.496-5.454-0.266-10.28-2.88-13.522-6.862-0.566 0.982-0.898 2.106-0.898 3.316 0 2.272 1.17 4.286 2.914 5.452-1.054-0.020-2.088-0.326-2.964-0.808 0 0.020 0 0.046 0 0.072 0 3.188 2.274 5.836 5.256 6.446-0.534 0.146-1.116 0.216-1.72 0.216-0.42 0-0.844-0.024-1.242-0.112 0.85 2.598 3.262 4.508 6.13 4.57-2.232 1.746-5.066 2.798-8.134 2.798-0.538 0-1.054-0.024-1.57-0.090 2.906 1.874 6.35 2.944 10.064 2.944 12.072 0 18.672-10 18.672-18.668 0-0.29-0.010-0.57-0.024-0.848 1.302-0.924 2.396-2.078 3.288-3.406z">
            </path>
        </symbol>

        <!-- logos for clients -->

        <symbol id="icon-logo1">
            <path d="M6 0l7.308 6.918h20.384v19.298L41 33.134V0H6z" />
            <path
                d="M0 6.626v32.188h34V26.02L13.523 6.634 0 6.626zm27.523 27.48H5.38V12.457h1.565V32.64h20.578v1.465zM9.791 44.784l.818-1.685h.684L10.1 45.345v1.309h-.62v-1.309L8.287 43.1h.686l.818 1.685zm3.51 1.042h-1.376l-.288.828h-.642l1.342-3.555h.555l1.345 3.555h-.645l-.29-.828zm-1.203-.498h1.03l-.515-1.475-.515 1.475zm3.638.366c0-.164.045-.315.134-.451.09-.139.266-.302.53-.491a2.265 2.265 0 01-.29-.444.877.877 0 01-.081-.354c0-.279.084-.498.254-.66.169-.162.397-.244.683-.244.26 0 .47.077.635.23.166.151.25.34.25.564a.785.785 0 01-.113.41 1.34 1.34 0 01-.369.371l-.242.176.687.81c.099-.195.148-.412.148-.651h.515c0 .437-.102.796-.307 1.076l.522.618h-.688l-.2-.237a1.47 1.47 0 01-.909.286c-.351 0-.633-.093-.844-.279a.932.932 0 01-.315-.73zm1.177.535c.2 0 .387-.067.561-.2l-.776-.916-.076.054c-.195.148-.293.317-.293.508 0 .164.053.298.159.4a.585.585 0 00.425.154zm-.328-2.29c0 .137.084.308.252.515l.27-.185.077-.061a.44.44 0 00.151-.345.311.311 0 00-.105-.236.37.37 0 00-.266-.1.348.348 0 00-.276.117.432.432 0 00-.103.295zm6.458 1.558c-.036.379-.176.675-.42.888-.244.212-.569.318-.974.318-.283 0-.533-.067-.75-.2a1.332 1.332 0 01-.498-.574 2.065 2.065 0 01-.183-.862v-.332c0-.335.06-.63.178-.886.12-.256.29-.453.51-.591.224-.139.48-.208.772-.208.392 0 .708.107.947.32.24.213.379.514.418.903h-.615c-.03-.255-.104-.439-.225-.551-.119-.114-.294-.171-.525-.171-.268 0-.475.098-.62.295-.143.196-.216.483-.22.862v.315c0 .384.069.677.206.879.138.202.34.303.605.303.242 0 .425-.055.547-.164.122-.109.2-.29.232-.544h.615zm3.391-.528c0 .349-.06.654-.18.918-.121.262-.294.464-.518.606-.223.14-.48.21-.772.21-.288 0-.545-.07-.771-.21a1.405 1.405 0 01-.523-.603 2.124 2.124 0 01-.185-.901v-.2c0-.347.06-.653.183-.918.124-.266.297-.468.52-.608.225-.142.482-.213.771-.213.29 0 .547.07.77.21.224.139.398.339.52.6.122.261.184.565.185.912v.197zm-.618-.185c0-.394-.075-.696-.224-.906a.728.728 0 00-.633-.315.731.731 0 00-.627.315c-.15.208-.226.504-.23.886v.205c0 .39.076.693.228.906.153.213.364.32.634.32.274 0 .484-.104.63-.313.148-.208.222-.512.222-.913v-.185z" />
        </symbol>
        <symbol id="icon-logo2">
            <path
                d="M16.977 2.935h.136c.253 0 .527.025.797.048 1.193.084 2.377.263 3.542.534V.654A21.09 21.09 0 0017.797.07 29.24 29.24 0 0016.319 0h-.427c-2.475.01-4.94.327-7.337.946-2.73.68-5.35 1.747-7.784 3.166v28.397a31.634 31.634 0 017.42-2.892 32.36 32.36 0 016.228-.956h.084c.351-.018.703-.028 1.065-.03v-2.91a34.328 34.328 0 00-8.095 1.076c-.98.255-1.925.53-2.813.834l-1.012.344V5.833l.432-.208a28.275 28.275 0 0110.516-2.683.627.627 0 01.091 0c.403-.02.808-.03 1.205-.03h.455c.21.005.42.01.63.023z" />
            <path
                d="M24.11 5.933a25.913 25.913 0 01-4.234-.344c-.45-.076-.893-.168-1.323-.267v28.072c1.82.45 3.69.67 5.565.656a29.943 29.943 0 007.337-.944 29.815 29.815 0 007.786-3.166V2.05a31.777 31.777 0 01-7.417 2.893c-2.52.648-5.112.98-7.713.99zm11.225.485l1.012-.34v22.148l-.433.209a27.764 27.764 0 01-5.173 1.859c-2.163.56-4.387.847-6.62.857-.668 0-1.33-.028-1.973-.084l-.693-.061V8.228l.807.054c.587.038 1.194.056 1.854.056 2.835-.01 5.659-.372 8.406-1.078.944-.25 1.882-.529 2.813-.842zM2.737 42.212a1.492 1.492 0 00-1.125-.455 1.673 1.673 0 00-.65.122 1.463 1.463 0 00-.832.842c-.08.2-.12.413-.117.628v3.794c-.01.267.042.533.149.778.09.195.219.368.38.509.151.127.33.22.52.27.185.051.376.078.567.078.212.002.42-.043.612-.132a1.599 1.599 0 00.96-1.465v-.424h-.992v.338a.881.881 0 01-.059.338.608.608 0 01-.144.214.697.697 0 01-.415.145.503.503 0 01-.465-.204.899.899 0 01-.132-.508v-3.538c-.006-.196.036-.39.122-.567a.507.507 0 01.485-.229.527.527 0 01.443.214.806.806 0 01.165.509v.328h.981v-.387a1.788 1.788 0 00-.121-.664 1.562 1.562 0 00-.332-.534zM8.629 42.17a1.765 1.765 0 00-1.128-.418c-.202 0-.403.037-.592.107A1.559 1.559 0 006 42.7c-.1.231-.15.482-.145.735v3.638c-.006.256.043.51.145.745.09.196.22.37.384.509.152.14.33.25.524.32.19.07.39.106.592.107a1.714 1.714 0 001.128-.427c.158-.142.286-.315.374-.509.102-.234.151-.489.145-.745v-3.639a1.77 1.77 0 00-.145-.734 1.643 1.643 0 00-.374-.534zm-.463 4.904a.654.654 0 01-.197.527.727.727 0 01-.934 0 .652.652 0 01-.197-.527v-3.639a.654.654 0 01.197-.526.727.727 0 01.934 0 .651.651 0 01.197.526v3.64zM16.367 48.7v-6.89h-.953l-1.253 3.647h-.017l-1.263-3.646h-.943v6.888h.984v-4.19h.018l.963 2.962h.491l.972-2.962h.017v4.19h.984zM21.958 42.294c-.152-.17-.343-.3-.557-.377a2.184 2.184 0 00-.713-.107h-1.462v6.89h.981v-2.691h.506c.307.014.611-.051.886-.188a1.43 1.43 0 00.538-.527c.114-.183.19-.387.226-.6a4.9 4.9 0 00.053-.783c.01-.33-.023-.662-.096-.984a1.466 1.466 0 00-.362-.633zm-.506 2.1a.868.868 0 01-.091.359.552.552 0 01-.253.241 1.006 1.006 0 01-.463.087h-.448v-2.342h.506a.942.942 0 01.443.086.556.556 0 01.23.254c.054.121.083.252.086.384v.458c0 .16.01.326 0 .473h-.01zM26.608 41.81h-.805l-1.518 6.89h.982l.288-1.48h1.338l.289 1.48h.982l-1.556-6.89zm-.906 4.471l.483-2.497h.018l.48 2.497h-.981zM32.95 45.96h-.018l-1.482-4.15h-.944v6.89h.982v-4.143h.02l1.5 4.142h.923v-6.888h-.981v4.15zM38.948 41.81l-.79 2.74h-.02l-.79-2.74H36.31l1.348 3.978v2.911h.982v-2.911l1.348-3.977h-1.04zM0 50.645h.473v1.327h.321v-1.328h.47v-.272H0v.273zM3.977 50.372l-.62 1.6h.341l.132-.364h.637l.137.364h.35l-.636-1.6h-.341zm-.05.967l.217-.593.217.593h-.435zM7.908 51.382h.37v.206a.613.613 0 01-.38.135.404.404 0 01-.34-.153.669.669 0 01-.118-.417c0-.356.154-.534.46-.534a.337.337 0 01.362.255l.316-.062c-.068-.312-.293-.47-.678-.47a.804.804 0 00-.559.206.78.78 0 00-.23.615.873.873 0 00.205.6.776.776 0 00.607.235.96.96 0 00.678-.255v-.63h-.693v.27zM11.923 50.372h-.324v1.6h1.12V51.7h-.796v-1.328zM15.318 50.372h-.324v1.6h.324v-1.6zM18.636 51.44l-.655-1.068h-.314v1.6h.301v-1.045l.643 1.045h.321v-1.6h-.296v1.069zM21.637 51.267h.797v-.272h-.797v-.35h.857v-.273h-1.181v1.6h1.214V51.7h-.89v-.433zM28.912 51.003h-.63v-.63h-.32v1.599h.32v-.7h.63v.7h.322v-1.6h-.322v.631zM31.93 51.267h.8v-.272h-.8v-.35h.86v-.273H31.61v1.6h1.212V51.7h-.89v-.433zM36.023 51.268c.278-.044.42-.191.42-.445a.383.383 0 00-.157-.356.904.904 0 00-.468-.094h-.678v1.599h.322v-.669h.063a.431.431 0 01.2.036c.047.029.086.069.114.117l.349.508h.384l-.195-.312a1.115 1.115 0 00-.354-.384zm-.324-.222h-.237v-.401h.253a.84.84 0 01.326.038.21.21 0 01-.015.325.913.913 0 01-.327.038zM39.11 51.267h.796v-.272h-.796v-.35h.86v-.273h-1.184v1.6H40V51.7h-.89v-.433z" />
        </symbol>
        <symbol id="icon-logo3">
            <path
                d="M6.345 41.795a.118.118 0 01.08.034l.206.216c-.16.174-.357.314-.579.409-.26.104-.539.154-.82.147a2.011 2.011 0 01-.772-.137 1.672 1.672 0 01-.957-.986 2.163 2.163 0 01-.131-.767 2.017 2.017 0 01.141-.77c.09-.222.226-.425.4-.597.175-.17.385-.302.616-.39.254-.094.524-.14.795-.137.253-.006.504.036.738.125.204.084.391.2.553.345l-.172.23a.173.173 0 01-.044.042.11.11 0 01-.069.018.157.157 0 01-.075-.025l-.092-.061-.129-.079a1.4 1.4 0 00-.406-.137 1.643 1.643 0 00-.306-.024 1.534 1.534 0 00-.571.102 1.29 1.29 0 00-.448.29c-.128.133-.227.29-.29.46-.073.195-.109.401-.106.608-.003.21.033.42.105.618.063.169.16.325.286.458.118.125.264.222.427.285.168.066.348.1.53.098.105.001.21-.005.314-.02.17-.02.332-.076.475-.164.072-.045.14-.096.204-.152a.153.153 0 01.097-.04zM12.287 40.71c.003.26-.044.52-.139.763a1.655 1.655 0 01-.387.592 1.754 1.754 0 01-.608.388 2.296 2.296 0 01-1.564 0 1.777 1.777 0 01-.604-.39 1.74 1.74 0 01-.391-.597 2.167 2.167 0 010-1.527c.087-.223.22-.427.39-.6a1.78 1.78 0 01.605-.375 2.258 2.258 0 011.564 0c.228.088.435.22.607.39.17.17.301.37.388.59.095.245.143.505.14.767zm-.54 0a1.759 1.759 0 00-.098-.612 1.208 1.208 0 00-.71-.747 1.658 1.658 0 00-1.137 0 1.208 1.208 0 00-.712.747c-.13.4-.13.827 0 1.226a1.203 1.203 0 00.712.745c.367.13.77.13 1.137 0 .166-.064.314-.162.435-.287.123-.134.217-.29.275-.458.07-.198.102-.405.098-.613zM16.34 41.353l.055.137c.02-.049.038-.093.059-.137a1.32 1.32 0 01.067-.135l1.314-2.276c.026-.04.049-.064.075-.071a.322.322 0 01.108-.012h.388v3.702h-.46V39.84v-.115a1.085 1.085 0 010-.128l-1.322 2.309a.202.202 0 01-.078.084.216.216 0 01-.113.03h-.074c-.04.001-.08-.01-.113-.03a.2.2 0 01-.078-.084l-1.36-2.324v2.973h-.445v-3.695h.388a.322.322 0 01.108.012.15.15 0 01.072.071l1.343 2.279a.805.805 0 01.067.132zM21.287 41.17v1.386h-.514V38.86h1.147c.216-.004.432.023.64.08.167.045.321.124.453.23.114.1.202.225.257.363.061.151.09.312.088.473.002.162-.03.323-.096.473a1.01 1.01 0 01-.277.37 1.27 1.27 0 01-.456.245c-.2.061-.41.09-.62.086l-.622-.01zm0-.398h.623c.135.002.27-.017.398-.056a.843.843 0 00.288-.16.652.652 0 00.175-.244.768.768 0 00.062-.312.677.677 0 00-.052-.3.708.708 0 00-.18-.253 1.033 1.033 0 00-.691-.199h-.623v1.524zM28.201 42.561h-.406a.181.181 0 01-.114-.034.226.226 0 01-.067-.086l-.35-.894h-1.756l-.363.894a.2.2 0 01-.064.083.181.181 0 01-.116.037h-.406l1.543-3.703h.535l1.564 3.703zm-2.546-1.375h1.45l-.612-1.507a2.6 2.6 0 01-.116-.348l-.059.194a1.84 1.84 0 01-.056.157l-.607 1.504zM30.423 38.875c.031.017.058.04.078.067l2.25 2.79v-.129-2.745h.46v3.703h-.257a.23.23 0 01-.105-.022.283.283 0 01-.082-.069l-2.249-2.788c.003.042.003.085 0 .127v2.753h-.46v-3.704h.273c.032 0 .063.005.092.017zM37.003 41.088v1.47h-.515v-1.47l-1.422-2.23h.46a.173.173 0 01.111.032.314.314 0 01.07.084l.89 1.438c.035.061.066.118.092.172.026.053.046.105.064.156l.067-.159a1.3 1.3 0 01.088-.169l.877-1.448a.379.379 0 01.067-.079.161.161 0 01.11-.036h.466l-1.425 2.24zM16.086 32.644c.224.027.45.05.68.069 3.47-1.48 6.406-3.9 8.44-6.96 2.035-3.06 3.077-6.624 2.998-10.246l-3.825-3.644a20.22 20.22 0 01-1.05 11.512c-1.465 3.67-3.973 6.88-7.243 9.27z" />
            <path
                d="M14.72 32.475l.103.02c3.495-2.382 6.159-5.707 7.648-9.546a19.54 19.54 0 00.707-11.99L17.73 5.77a24.082 24.082 0 012.558 13.768c-.533 4.728-2.464 9.214-5.568 12.938zM33.196 19.786c-.925 3.98-3.173 7.568-6.41 10.234a20.218 20.218 0 01-3.045 2.082 18.188 18.188 0 007.08-3.813 17.085 17.085 0 004.585-6.4l-2.21-2.103z" />
            <path
                d="M32.33 19.2l-3.146-2.997a18.475 18.475 0 01-2.953 9.67c-1.873 2.915-4.534 5.299-7.699 6.903h.016c.705 0 1.41-.04 2.111-.12a19.338 19.338 0 007.611-5.33 18.093 18.093 0 004.06-8.126zM15.176 3.58L11.423 0c-3.355 1.235-6.24 3.406-8.278 6.23C1.107 9.053.01 12.397 0 15.823c.013 3.787 1.35 7.46 3.801 10.441 2.451 2.98 5.875 5.097 9.731 6.015 3.442-3.995 5.457-8.932 5.753-14.093.295-5.161-1.144-10.277-4.11-14.606zM41 18.649c-.014-4.492-1.893-8.797-5.227-11.973-3.334-3.177-7.852-4.967-12.567-4.98-2.179-.002-4.34.381-6.371 1.13l22.977 21.89A16.072 16.072 0 0041 18.65z" />
        </symbol>
        <symbol id="icon-logo4">
            <path
                d="M12.402 12.83h-.003c-2.262 0-4.096 1.788-4.096 3.992v.003c0 2.204 1.834 3.992 4.096 3.992h.003c2.262 0 4.096-1.788 4.096-3.992v-.003c0-2.204-1.834-3.991-4.096-3.991zM42.637 11.555c-.007-3.063-1.258-5.997-3.48-8.163C36.938 1.227 33.926.007 30.784 0c-3.143.006-6.156 1.225-8.379 3.39-2.223 2.166-3.474 5.102-3.48 8.165V28.44s23.71-2.573 23.713-16.883v-.002zM0 33.982a7.96 7.96 0 002.422 5.68 8.384 8.384 0 005.827 2.362 8.384 8.384 0 005.826-2.361 7.96 7.96 0 002.423-5.678v-11.75S0 24.029 0 33.983zm8.25 2.105a2.2 2.2 0 01-1.201-.354 2.117 2.117 0 01-.796-.945 2.055 2.055 0 01-.123-1.216c.084-.409.29-.784.592-1.078a2.178 2.178 0 011.106-.576c.419-.082.853-.04 1.248.12.394.159.732.429.97.775a2.067 2.067 0 01.201 1.977c-.108.257-.267.49-.468.686-.2.196-.439.352-.701.458a2.21 2.21 0 01-.829.161v-.008zM25.089 34.781h-1.688v1.743h-.878V32.26H25.3v.712H23.4v1.101h1.688v.71zm4.225-.293c0 .42-.075.788-.223 1.105-.149.316-.361.56-.639.732a1.755 1.755 0 01-.949.258 1.695 1.695 0 01-1.59-.981 2.511 2.511 0 01-.232-1.09V34.3c0-.42.075-.79.225-1.108.153-.32.367-.565.642-.735.277-.172.594-.258.95-.258.355 0 .67.086.945.258.278.17.492.415.642.735.152.319.229.687.229 1.105v.19zm-.891-.193c0-.447-.08-.787-.24-1.02a.783.783 0 00-.686-.348.782.782 0 00-.682.346c-.16.228-.242.564-.244 1.007v.208c0 .436.08.774.24 1.014.16.24.391.36.692.36a.775.775 0 00.68-.345c.158-.233.238-.57.24-1.014v-.208zm3.741 1.11a.447.447 0 00-.176-.38c-.117-.09-.328-.184-.632-.282a4.56 4.56 0 01-.724-.293c-.484-.262-.727-.614-.727-1.057 0-.23.065-.436.194-.616.13-.181.317-.323.56-.425.244-.101.517-.152.82-.152.304 0 .576.056.814.167.238.11.423.265.554.466.133.201.199.43.199.686h-.879c0-.196-.061-.347-.184-.454-.123-.11-.296-.165-.519-.165-.215 0-.382.046-.501.138a.426.426 0 00-.179.358c0 .138.07.254.208.348.14.094.347.182.618.264.5.15.865.337 1.093.56.229.222.343.5.343.831 0 .37-.14.66-.419.87-.28.21-.655.314-1.128.314-.328 0-.627-.06-.896-.179a1.438 1.438 0 01-.619-.495 1.27 1.27 0 01-.21-.726h.881c0 .47.282.706.844.706.21 0 .372-.042.49-.126a.418.418 0 00.175-.358zm4.69-2.434h-1.306v3.553h-.879v-3.553H33.38v-.712h3.475v.712zm3.07 1.705h-1.687v1.142h1.98v.706H37.36V32.26h2.853v.712h-1.975v1.016h1.688v.689zm2.389.287h-.7v1.561h-.88V32.26h1.586c.503 0 .892.112 1.165.337.274.224.41.542.41.952 0 .29-.063.534-.19.73a1.282 1.282 0 01-.571.462l.923 1.743v.041h-.944l-.8-1.561zm-.7-.712h.708c.221 0 .392-.056.513-.167a.607.607 0 00.182-.466c0-.201-.058-.36-.173-.474-.113-.116-.288-.173-.525-.173h-.706v1.28zm5.326.77v1.503h-.88V32.26h1.665c.32 0 .601.058.844.176.244.117.431.284.562.5.13.215.196.46.196.736 0 .418-.143.748-.43.99-.285.24-.681.36-1.187.36h-.77zm0-.711h.785c.232 0 .409-.055.53-.165.123-.109.185-.265.185-.468a.704.704 0 00-.185-.507c-.123-.129-.293-.195-.51-.2h-.805v1.34zm5.56.366h-1.687v1.142h1.98v.706h-2.86V32.26h2.854v.712h-1.974v1.016h1.687v.689zm4.078-1.705h-1.306v3.553h-.88v-3.553h-1.288v-.712h3.474v.712zm3.07 1.705H57.96v1.142h1.98v.706h-2.859V32.26h2.854v.712H57.96v1.016h1.688v.689zm2.388.287h-.7v1.561h-.879V32.26h1.585c.504 0 .893.112 1.166.337.274.224.41.542.41.952 0 .29-.063.534-.19.73a1.282 1.282 0 01-.571.462l.922 1.743v.041h-.943l-.8-1.561zm-.7-.712h.71c.22 0 .39-.056.512-.167a.607.607 0 00.181-.466c0-.201-.057-.36-.172-.474-.114-.116-.288-.173-.525-.173h-.706v1.28zm5.165 1.154a.447.447 0 00-.176-.38c-.117-.09-.328-.184-.632-.282a4.56 4.56 0 01-.724-.293c-.484-.262-.727-.614-.727-1.057 0-.23.065-.436.194-.616.13-.181.317-.323.56-.425.243-.101.517-.152.82-.152.304 0 .576.056.814.167.238.11.423.265.554.466.133.201.199.43.199.686h-.879c0-.196-.061-.347-.184-.454-.124-.11-.296-.165-.52-.165-.214 0-.38.046-.5.138a.426.426 0 00-.179.358c0 .138.07.254.208.348.14.094.347.182.618.264.5.15.865.337 1.093.56.229.222.343.5.343.831 0 .37-.14.66-.419.87-.28.21-.655.314-1.128.314-.328 0-.627-.06-.896-.179a1.439 1.439 0 01-.619-.495 1.27 1.27 0 01-.21-.726h.881c0 .47.282.706.844.706.21 0 .372-.042.49-.126a.418.418 0 00.175-.358z" />
        </symbol>
        <symbol id="icon-logo5">
            <path
                d="M4.488 39.278c.23.285.352.643.346 1.01a1.604 1.604 0 01-.536 1.277c-.447.339-1 .504-1.559.466H0v-6.405h2.683a2.284 2.284 0 011.487.426 1.464 1.464 0 01.52 1.198c.016.353-.095.7-.311.98-.209.254-.496.43-.817.5.363.067.692.26.926.548zm-3.213-.967H2.42c.261.02.52-.056.73-.213a.761.761 0 00.246-.626.788.788 0 00-.243-.625 1.106 1.106 0 00-.751-.216H1.275v1.68zm1.988 2.456a.796.796 0 00.271-.65.81.81 0 00-.277-.658 1.18 1.18 0 00-.78-.231H1.276v1.761h1.218c.274.016.546-.062.77-.222zM9.973 42.031L8.48 39.528h-.561v2.503H6.635v-6.405h2.43a2.39 2.39 0 011.693.545 2.047 2.047 0 01.18 2.65c-.3.345-.709.575-1.159.65l1.59 2.56H9.973zm-2.054-3.376h1.05c.73 0 1.094-.323 1.094-.97a.957.957 0 00-.268-.72 1.135 1.135 0 00-.826-.26H7.906l.013 1.95zM16.99 40.742h-2.558l-.452 1.29h-1.346l2.35-6.334h1.455l2.34 6.333h-1.346l-.442-1.289zm-.342-.97l-.935-2.703-.935 2.703h1.87zM25.776 42.031H24.5l-2.857-4.355v4.355h-1.272v-6.405h1.272l2.857 4.38v-4.38h1.275v6.405zM33.05 40.498a2.757 2.757 0 01-1.153 1.13c-.555.281-1.171.42-1.792.403h-2.27v-6.405h2.27a3.816 3.816 0 011.791.395c.488.246.89.636 1.154 1.117a3.736 3.736 0 010 3.36zm-1.459-.153a2.352 2.352 0 000-3.057 2.21 2.21 0 00-1.596-.545h-.885v4.146h.886a2.21 2.21 0 001.595-.544zM17.788 0S34.24 6.236 33.892 15.26v15.263s-16.44-6.24-16.096-15.263L17.788 0zM48.547 26.95A22.486 22.486 0 0159 23.082v-4.778a21.466 21.466 0 00-10.453 8.646z" />
            <path
                d="M46.68 28.389A22.382 22.382 0 0159 17.303V3.536s-23.43 8.883-22.934 21.733V47s1.044-.397 2.687-1.142c0-.695 0-1.395.075-2.1A22.606 22.606 0 0146.68 28.39z" />
            <path
                d="M44.453 36.462c.123-1.507.397-2.998.82-4.45a21.04 21.04 0 00-4.962 13.126 68.003 68.003 0 004.506-2.384 22.581 22.581 0 01-.364-6.292zM45.384 36.54a21.585 21.585 0 00.29 5.698c6.401-3.846 13.594-9.788 13.317-16.968v-.626a20.972 20.972 0 00-12.18 5.713 21.496 21.496 0 00-1.427 6.183z" />
        </symbol>
        <symbol id="icon-logo6">
            <path
                d="M44.74 21.353a3.258 3.258 0 01-.57-2.057v-2.982c0-.915.19-1.61.567-2.085.378-.475 1.028-.712 1.949-.71.865 0 1.48.202 1.843.607.396.516.589 1.147.545 1.784v.7h-1.548v-.71a3.961 3.961 0 00-.045-.694.689.689 0 00-.221-.413.836.836 0 00-.561-.16.886.886 0 00-.59.17.81.81 0 00-.256.455c-.045.243-.065.49-.061.737v3.62a2 2 0 00.198 1.016.735.735 0 00.31.247.78.78 0 00.399.057.788.788 0 00.548-.164.747.747 0 00.23-.44c.037-.24.053-.483.049-.725v-.735h1.548v.67a2.914 2.914 0 01-.536 1.876c-.355.443-.961.664-1.852.664-.891 0-1.564-.236-1.946-.728zM51.186 21.384c-.391-.465-.587-1.141-.587-2.036V16.21c0-.886.196-1.556.587-2.011.39-.455 1.044-.682 1.961-.68.91 0 1.56.227 1.952.68.39.455.59 1.125.59 2.011v3.138c0 .886-.2 1.565-.596 2.033-.398.467-1.045.7-1.946.7-.9 0-1.567-.236-1.961-.697zm2.682-.753c.14-.29.204-.61.186-.928v-3.841a1.843 1.843 0 00-.183-.91.738.738 0 00-.316-.25.785.785 0 00-.408-.054.794.794 0 00-.41.054.749.749 0 00-.317.25c-.141.283-.205.596-.186.91v3.859c-.02.32.044.638.186.928a.96.96 0 00.326.23 1.009 1.009 0 00.796 0 .96.96 0 00.326-.23v-.018zM57.55 13.61h1.667l1.253 5.79 1.282-5.79h1.622l.163 8.356H62.34l-.128-5.807-1.238 5.807h-.961l-1.282-5.828-.119 5.828H57.4l.15-8.355zM65.406 13.61h2.596c1.495 0 2.243.791 2.243 2.373 0 1.515-.787 2.271-2.362 2.27H67v3.713h-1.603l.01-8.355zm2.218 3.571c.158.02.319.006.47-.04.153-.045.293-.122.411-.223.184-.283.265-.614.23-.944a2.854 2.854 0 00-.076-.758.63.63 0 00-.118-.23.67.67 0 00-.203-.168 1.528 1.528 0 00-.714-.133h-.622v2.496h.622zM72.556 13.61h1.721l1.766 8.356h-1.494l-.349-1.927h-1.535l-.359 1.927H70.79l1.766-8.355zm1.471 5.462l-.6-3.508-.599 3.508h1.2zM77.47 13.61h1.12l2.148 4.767V13.61h1.33v8.355h-1.067l-2.16-4.976v4.976h-1.375l.003-8.355zM85.183 18.78l-1.785-5.158h1.503l1.09 3.313 1.022-3.313h1.471l-1.762 5.158v3.186h-1.539V18.78zM47.215 25.619v.437h-1.308v3.395h-.548v-3.395h-1.314v-.437h3.17zM51.314 29.451h-.423a.176.176 0 01-.119-.036.196.196 0 01-.07-.088l-.378-.91H48.51l-.379.91a.257.257 0 01-.057.103.183.183 0 01-.119.036h-.423l1.603-3.832h.557l1.622 3.817zm-2.654-1.423h1.513l-.641-1.56a2.964 2.964 0 01-.119-.36l-.06.203-.058.16-.635 1.557zM54.077 29.075c.1.005.2.005.3 0 .087-.009.173-.024.257-.046a1.82 1.82 0 00.23-.07c.071-.027.142-.06.216-.093v-.862h-.641a.12.12 0 01-.087-.03.084.084 0 01-.032-.07v-.295h1.244v1.469a2.355 2.355 0 01-.677.312 2.653 2.653 0 01-.4.08 4.455 4.455 0 01-.468.024 2.252 2.252 0 01-.808-.143 1.935 1.935 0 01-.64-.4 1.849 1.849 0 01-.414-.607 2.074 2.074 0 01-.148-.795 2.155 2.155 0 01.145-.802c.092-.227.232-.433.413-.606.183-.173.401-.308.641-.398.274-.098.566-.146.859-.142.15 0 .298.01.445.033.13.02.258.052.382.097.112.04.22.09.32.152.099.06.192.127.28.2l-.155.237a.14.14 0 01-.052.052.15.15 0 01-.073.02.196.196 0 01-.1-.03 1.906 1.906 0 01-.156-.09 1.369 1.369 0 00-.215-.104 1.869 1.869 0 00-.295-.085 2.256 2.256 0 00-.407-.033 1.743 1.743 0 00-.618.106c-.179.068-.34.171-.471.303-.133.138-.235.3-.298.477a1.953 1.953 0 000 1.277c.07.18.179.345.32.482.132.132.291.235.468.304.204.066.42.092.635.076zM59.185 29.014h1.75v.437H58.65v-3.832h.548l-.013 3.395zM62.755 29.45h-.548V25.62h.548v3.832zM64.794 25.637a.27.27 0 01.083.07l2.343 2.889a.972.972 0 010-.137v-2.855h.477v3.847h-.275a.24.24 0 01-.119-.021.314.314 0 01-.086-.073l-2.34-2.885v2.979h-.458V25.62h.285c.031 0 .062.006.09.018zM71.732 25.619v.422H69.79v1.265h1.574v.406H69.79v1.308h1.942v.422h-2.506v-3.823h2.506zM14.303 1.954l24.335 6.541v22.922L14.305 24.88V1.954zM12.743 0v25.992l27.453 7.382V7.384L12.743 0z" />
            <path d="M27.456 45.44L0 38.052v-25.99l27.456 7.385V45.44z" />
            <path
                d="M13.198 1.66l24.017 6.459-10.214 9.672-24.02-6.462 10.217-9.67zM12.743 0L0 12.063l27.456 7.385 12.74-12.063L12.743 0zM29.001 43.978l11.195-10.6-11.195-3.013v13.613z" />
        </symbol>

        <!-- contacts -->

        <symbol id="icon-mail-icon" viewBox="0 0 43 32">
            <path
                d="M38.667 0h-34.667c-2.206 0-4 1.794-4 4v24c0 2.206 1.794 4 4 4h34.667c2.206 0 4-1.794 4-4v-24c0-2.206-1.794-4-4-4zM38.667 2.667c0.181 0 0.353 0.038 0.511 0.103l-17.844 15.466-17.844-15.466c0.158-0.066 0.33-0.103 0.511-0.103h34.667zM38.667 29.333h-34.667c-0.736 0-1.333-0.598-1.333-1.333v-22.413l17.793 15.421c0.251 0.217 0.563 0.326 0.874 0.326s0.622-0.108 0.874-0.326l17.793-15.421v22.413c0 0.736-0.598 1.333-1.333 1.333z">
            </path>
        </symbol>

        <symbol id="icon-phone-icon" viewBox="0 0 20 32">
            <path
                d="M17 0h-14c-1.654 0-3 1.346-3 3v26c0 1.654 1.346 3 3 3h14c1.654 0 3-1.346 3-3v-26c0-1.654-1.346-3-3-3zM3 2h14c0.552 0 1 0.448 1 1v21h-16v-21c0-0.552 0.448-1 1-1zM17 30h-14c-0.552 0-1-0.448-1-1v-3h16v3c0 0.552-0.448 1-1 1z">
            </path>
        </symbol>

        <symbol id="icon-send">
            <path d="M24 0L0 13.5l7.67 2.84L19.5 5.25l-8.998 12.14.007.002-.009-.002V24l4.301-5.018L20.251 21 24 0z"
                fill="#fff" />
        </symbol>

        <!-- icons for features -->

        <symbol id="satellite-img">
            <path
                d="M67.316 48.339l-18.47-18.605 2.05-10.097a4.655 4.655 0 001.66.319h.014a4.723 4.723 0 10-4.394-3.14l-10.85 1.325L19.628.35a1.166 1.166 0 00-.824-.35c-.306.002-.6.124-.817.34L14.68 3.63a1.167 1.167 0 000 1.65l1.78 1.805a32.686 32.686 0 005.511 38.638c.094.09.202.161.32.213a6.77 6.77 0 00-.114 1.197v13.534h-14A5.84 5.84 0 002.342 66.5v2.333c0 .645.523 1.167 1.167 1.167h53.667c.644 0 1.166-.522 1.166-1.167V66.5a5.84 5.84 0 00-5.833-5.833h-14v-5.998c2.193.46 4.428.694 6.669.7a32.483 32.483 0 0015.4-3.901l1.79 1.8c.216.221.513.347.823.35.306-.002.6-.124.817-.34l3.308-3.29a1.167 1.167 0 000-1.65zM50.925 13.635a2.333 2.333 0 111.645 3.987h-.008a2.333 2.333 0 01-1.633-3.987h-.004zM48.178 21.3l-1.309 6.444-2.571-2.587 3.88-3.857zm-1.325-1.973l-4.2 4.176-3.25-3.267 7.45-.909zM52.509 63a3.5 3.5 0 013.5 3.5v1.167H4.676V66.5a3.5 3.5 0 013.5-3.5h44.333zm-16.333-4.667v2.334H24.509v-2.334h11.667zM24.509 56v-8.867c0-2.83 2.617-5.133 5.833-5.133 3.217 0 5.834 2.303 5.834 5.133V56H24.509zm14-3.71v-5.157c0-4.117-3.663-7.466-8.167-7.466a8.312 8.312 0 00-7.177 3.907A30.34 30.34 0 0118.18 8.82l40.692 40.925a30.233 30.233 0 01-20.363 2.544zm24.695-1.496l-1.644-1.653L18.792 6.116l-1.65-1.655 1.65-1.645L36.15 20.272c.008 0 .013.015.021.021l28.688 28.856-1.655 1.645z" />
            <path
                d="M30.353 44.333h-.01a3.5 3.5 0 00-.011 7h.01a3.5 3.5 0 10.01-7zm.816 4.328a1.167 1.167 0 11-.827-1.994 1.166 1.166 0 01.817 1.993h.01z"
                fill="#2196F3" />
        </symbol>
        <symbol id="graph-img">
            <g clip-path="url(#clip0)">
                <path
                    d="M32.65 32.735h2.332V43.23H32.65V32.735zM41.978 37.4h2.332v5.83h-2.332V37.4zM23.321 40.898h2.332v2.332h-2.332v-2.332zM16.325 39.731h2.332v3.498h-2.332v-3.498z"
                    fill="#2196F3" />
                <path
                    d="M3.498 61.886h55.97a3.498 3.498 0 003.499-3.498v-4.664a3.498 3.498 0 00-3.498-3.498h-1.166v-29.08l6.623-6.274a3.518 3.518 0 10-1.633-1.668l-4.99 4.73v-2.69a3.498 3.498 0 00-3.498-3.498H8.162a3.498 3.498 0 00-3.498 3.498v34.982H3.498A3.498 3.498 0 000 53.724v4.664a3.498 3.498 0 003.498 3.498zM66.465 10.58a1.166 1.166 0 110 2.332 1.166 1.166 0 010-2.332zM6.996 15.244c0-.644.522-1.166 1.166-1.166h46.643c.644 0 1.166.522 1.166 1.166v4.897l-2.332 2.216v-4.78c0-.645-.523-1.167-1.167-1.167H10.495c-.644 0-1.167.522-1.167 1.166v29.152c0 .644.523 1.166 1.167 1.166h41.977c.645 0 1.167-.522 1.167-1.166V25.565l2.332-2.21v26.87H6.996v-34.98zm10.495 15.159a3.498 3.498 0 102.422 6.012l4.053 2.034c.471.235 1.042.125 1.392-.268l8.616-9.694 8.47 6.347c.455.34 1.089.304 1.501-.086l7.361-6.973v17.787H11.661v-26.82h39.645v5.82l-8.25 7.813-8.54-6.403a1.167 1.167 0 00-1.572.157l-8.734 9.828-3.265-1.633c.023-.14.038-.281.044-.423a3.498 3.498 0 00-3.498-3.498zm1.166 3.498a1.166 1.166 0 11-2.332 0 1.166 1.166 0 012.332 0zm6.996 18.657h11.66v1.166c0 .644-.521 1.166-1.165 1.166h-9.329a1.166 1.166 0 01-1.166-1.166v-1.166zm-23.32 1.166c0-.644.521-1.166 1.165-1.166h19.823v1.166a3.498 3.498 0 003.498 3.498h9.329a3.498 3.498 0 003.498-3.498v-1.166h19.823c.644 0 1.166.522 1.166 1.166v4.664c0 .644-.522 1.166-1.166 1.166H3.499a1.166 1.166 0 01-1.167-1.166v-4.664z" />
            </g>
            <defs>
                <clipPath id="clip0">
                    <path fill="#fff" d="M0 0h70v70H0z" />
                </clipPath>
            </defs>
        </symbol>
        <symbol id="spaceman-img">
            <path
                d="M69.943 9.896a1.168 1.168 0 00-.941-.793l-4.18-.608-1.87-3.787c-.391-.798-1.7-.798-2.091 0l-1.87 3.787-4.18.608a1.167 1.167 0 00-.648 1.99l3.026 2.948-.714 4.162c-.075.438.105.88.463 1.142.363.263.837.296 1.23.088l3.738-1.966 3.738 1.966a1.168 1.168 0 001.693-1.23l-.714-4.162 3.025-2.949a1.17 1.17 0 00.295-1.196zM64.556 12.8c-.275.267-.4.655-.335 1.033l.417 2.437-2.188-1.15a1.165 1.165 0 00-1.088 0l-2.188 1.15.417-2.437a1.168 1.168 0 00-.334-1.033l-1.773-1.727 2.448-.355c.38-.055.708-.294.879-.639l1.094-2.216 1.094 2.216c.17.345.498.584.879.639l2.448.355-1.77 1.727zM57.167 44.892h-2.333v2.334h2.333v-2.334zM57.167 49.56h-2.333v2.332h2.333V49.56zM59.5 47.226h-2.333v2.333H59.5v-2.333zM54.834 47.226H52.5v2.333h2.334v-2.333zM49 57.726h-2.333v2.333H49v-2.333zM49 62.393h-2.333v2.333H49v-2.333zM51.334 60.06H49v2.333h2.334v-2.334zM46.667 60.06h-2.334v2.333h2.334v-2.334zM35 53.06h-2.333v2.333H35v-2.334zM35 57.726h-2.333v2.333H35v-2.333zM37.333 55.392H35v2.334h2.333v-2.334zM32.667 55.392h-2.334v2.334h2.334v-2.334zM12.833 13.392H10.5v2.333h2.333v-2.333zM12.833 18.059H10.5v2.333h2.333V18.06zM15.166 15.725h-2.333v2.334h2.333v-2.334zM10.5 15.725H8.166v2.334H10.5v-2.334z"
                fill="#2196F3" />
            <path
                d="M54.063 30.974a3.88 3.88 0 00-2.599-1.541 3.886 3.886 0 00-2.93.77L45.794 32.3l-.001.002-4.151 3.1-2.97-1.184c5.296-2.376 8.998-7.674 8.998-13.825 0-8.363-6.83-15.167-15.227-15.167s-15.228 6.804-15.228 15.167c0 3.031.907 5.85 2.45 8.222l-6.046-.053h-.01c-.019 0-.034.01-.051.01a1.14 1.14 0 00-.34.069c-.028.01-.057.016-.084.029-.014.006-.028.007-.042.014l-7.072 3.491c-.001 0-.003 0-.003.002l-4.141 1.991a.905.905 0 00-.138.077A3.895 3.895 0 00.43 39.268a3.884 3.884 0 002.31 1.944 3.891 3.891 0 003.016-.281l3.036-1.614 4.952-2.558 2.968-.017L4.808 48.588c0 .002-.002.002-.003.003l-2.928 2.916a3.607 3.607 0 00-1.073 2.577 3.647 3.647 0 003.652 3.64c.936 0 1.869-.355 2.582-1.062l2.875-2.863 3.808-2.843 1.97 1.962-3.853 3.837-.004.002-2.928 2.917a3.607 3.607 0 00-1.073 2.576c0 .973.38 1.889 1.073 2.579a3.65 3.65 0 002.58 1.061c.935 0 1.87-.354 2.582-1.061l2.93-2.917 4.686-4.667.002-.003 2.21-2.188-.01-.008c.015-.014.035-.019.049-.034l11.3-12.377 7.593 1.08c.055.008.11.012.165.012.14 0 .277-.034.41-.084.038-.014.071-.033.108-.051.042-.021.086-.033.126-.06l7.029-4.666c.026-.018.04-.046.064-.065.028-.022.063-.031.089-.056l2.78-2.605a3.892 3.892 0 00.465-5.166zM4.66 38.872a1.56 1.56 0 01-1.221.113 1.565 1.565 0 01-.465-2.755l2.874-1.383.692 2.022.29.85-2.17 1.153zm7.65-3.998l-3.387 1.75-.558-1.633-.402-1.174 4.434-2.189-.087 3.246zm33.03-14.482c0 2.009-.48 3.904-1.31 5.599l-9.147-4.155a4.07 4.07 0 00-1.724-3.035l3.203-10.633c5.2 1.655 8.978 6.507 8.978 12.224zm-25.788 0c0-7.076 5.784-12.834 12.894-12.834.553 0 1.094.047 1.63.115L30.943 18.07c-.042 0-.081-.013-.125-.013a4.094 4.094 0 00-4.096 4.084 4.095 4.095 0 004.096 4.083c1.52 0 2.832-.838 3.54-2.066l8.45 3.838c-2.352 3.165-6.114 5.228-10.362 5.228-7.11 0-12.894-5.757-12.894-12.833zm13.03 1.75c0 .965-.792 1.75-1.764 1.75a1.759 1.759 0 01-1.762-1.75c0-.965.79-1.75 1.762-1.75s1.763.785 1.763 1.75zM5.391 55.007a1.33 1.33 0 01-1.87.002 1.3 1.3 0 010-1.847l2.105-2.097L7.49 52.92l-2.097 2.088zm7.03 8.167a1.33 1.33 0 01-1.87.002 1.299 1.299 0 010-1.847l2.106-2.098.88.876.983.978-2.099 2.09zm7.616-7.588l-.003.003-3.86 3.85-.882-.877-.982-.977 3.857-3.84v-.001l.004-.002c.087-.088.142-.193.196-.297.015-.03.044-.056.057-.087.036-.09.042-.187.056-.281.007-.054.03-.104.03-.16 0-.077-.028-.153-.044-.23-.014-.07-.014-.141-.041-.209a1.166 1.166 0 00-.2-.301c-.022-.026-.03-.058-.054-.083h-.002s0-.003-.002-.005l-3.515-3.5c-.037-.037-.085-.052-.127-.084a1.122 1.122 0 00-.19-.126 1.091 1.091 0 00-.204-.07 1.134 1.134 0 00-.226-.044 1.142 1.142 0 00-.209.01c-.078.01-.151.02-.227.045-.074.023-.139.06-.206.098-.044.024-.093.033-.133.063l-3.88 2.896-1.97-1.963 5.248-5.22 9.538 9.382-2.029 2.01zm14.917-15.349c-.034-.005-.066.008-.1.006a1.148 1.148 0 00-.252.015 1.081 1.081 0 00-.404.15c-.065.04-.124.081-.181.134-.028.024-.062.036-.088.064L23.653 51.862l-9.468-9.311 6.197-6.165a1.168 1.168 0 00-.83-1.993l-4.854.028.061-3.516 6.79.058a15.2 15.2 0 0010.897 4.596c.957 0 1.89-.1 2.799-.268.087.07.174.14.283.185l5.272 2.1.333 1.659.39 1.937-6.569-.935zm8.84.39l-.685-3.408 3.164-2.363.828 1.1 1.242 1.649-4.55 3.022zm8.21-6.193l-1.832 1.717-2.037-2.704 1.818-1.394c.34-.261.768-.368 1.188-.313.422.06.796.28 1.05.622a1.562 1.562 0 01-.187 2.072z" />
            <path
                d="M29.755 40.565l-4.688-4.667a1.166 1.166 0 00-1.646 0l-4.687 4.667a1.172 1.172 0 000 1.654l4.686 4.667a1.166 1.166 0 001.647 0l4.688-4.667a1.167 1.167 0 000-1.654zm-5.51 3.848l-3.034-3.02 3.033-3.021 3.035 3.02-3.035 3.02zM37.547 11.092l-.564 2.266c.156.039 3.801.988 3.801 4.7h2.334c0-4.412-3.644-6.486-5.571-6.966zM43.118 20.392h-2.334v2.333h2.334v-2.333z" />
        </symbol>

        <symbol id="clock-img">
            <g clip-path="url(#clip0)">
                <path
                    d="M68.461 33.471C68.458 14.982 53.466-.004 34.975 0 16.485.004 1.5 14.996 1.504 33.486A33.479 33.479 0 0024.799 65.37c.133.042.27.063.41.063.263 0 .521-.071.748-.205.296-.175.516-.453.62-.78l8.454-26.797a4.184 4.184 0 10-1.837-7.95L22.025 18.53a1.395 1.395 0 00-1.972 1.973l11.163 11.176a4.104 4.104 0 001.173 5.051l-8.055 25.535C8.414 56.4.262 38.74 6.126 22.82 11.991 6.9 29.65-1.252 45.571 4.613c15.92 5.864 24.072 23.524 18.207 39.444A30.72 30.72 0 0147.455 61.5l-.87-4.1a1.394 1.394 0 00-2.294-.752l-8.393 7.494a1.394 1.394 0 00.505 2.372l10.716 3.42a1.394 1.394 0 001.791-1.619l-.855-4.022a33.37 33.37 0 0020.406-30.82zm-33.478-1.394a1.395 1.395 0 110 2.79 1.395 1.395 0 010-2.79zm4.594 32.515l4.778-4.262 1.319 6.213-6.097-1.951z" />
                <path
                    d="M33.588 6.967v2.79a1.395 1.395 0 102.79 0v-2.79a1.395 1.395 0 00-2.79 0zM8.479 32.077a1.395 1.395 0 000 2.79h2.79a1.395 1.395 0 100-2.79h-2.79zM61.487 34.867a1.395 1.395 0 100-2.79h-2.79a1.395 1.395 0 000 2.79h2.79z"
                    fill="#2196F3" />
            </g>
            <defs>
                <clipPath id="clip0">
                    <path fill="#fff" d="M0 0h70v70H0z" />
                </clipPath>
            </defs>
        </symbol>
    </defs>
</svg>